<svg width="42" height="38" viewBox="0 0 42 38" fill="none" xmlns="http://www.w3.org/2000/svg">
  <path
    d="M12.9687 1.99138C14.3935 0.243988 16.6307 -0.11084 18.6666 0.0267594C25.062 0.464402 30.8349 4.71279 35.8282 9.51858C37.6359 11.2583 39.4158 13.1331 40.5892 15.529C42.9778 20.4068 42.2696 27.1632 38.9478 31.181C37.8178 32.548 36.4481 33.596 35.0413 34.5254C32.5416 36.1772 29.8424 37.5029 27.0044 37.8807C24.9801 38.1495 22.9308 37.931 20.919 37.5551C15.2966 36.5066 9.77927 34.1846 5.15439 30.2171C3.12595 28.4761 1.21369 26.3121 0.377691 23.4951C-0.458313 20.6782 0.076803 17.112 2.15015 15.443C3.00698 14.7537 4.03139 14.4422 5.03404 14.1498C6.51024 13.7192 8.01005 13.2949 9.34182 12.4203C10.7176 11.5163 12.347 9.7683 12.073 7.76992C11.7785 5.62184 11.5471 3.7343 12.9687 1.99138Z"
    fill="white" />
</svg>