<svg width="21" height="21" viewBox="0 0 21 21" fill="none" xmlns="http://www.w3.org/2000/svg">
  <path
    d="M12.828 8.17192C12.0778 7.42204 11.0606 7.00077 9.99996 7.00077C8.9393 7.00077 7.92207 7.42204 7.17196 8.17192L3.17196 12.1719C2.78992 12.5409 2.48519 12.9823 2.27555 13.4703C2.06592 13.9583 1.95557 14.4832 1.95096 15.0143C1.94634 15.5454 2.04755 16.0722 2.24867 16.5637C2.4498 17.0553 2.74681 17.5019 3.12238 17.8775C3.49795 18.2531 3.94456 18.5501 4.43614 18.7512C4.92773 18.9523 5.45445 19.0535 5.98556 19.0489C6.51668 19.0443 7.04156 18.934 7.52958 18.7243C8.01759 18.5147 8.45897 18.21 8.82796 17.8279L9.92996 16.7269M9.17196 11.8279C9.92207 12.5778 10.9393 12.9991 12 12.9991C13.0606 12.9991 14.0778 12.5778 14.828 11.8279L18.828 7.82792C19.5566 7.07351 19.9598 6.0631 19.9507 5.01431C19.9415 3.96553 19.5209 2.96228 18.7792 2.22065C18.0376 1.47901 17.0344 1.05834 15.9856 1.04922C14.9368 1.04011 13.9264 1.44329 13.172 2.17192L12.072 3.27192"
    stroke="#111827" stroke-width="2" stroke-linecap="round" stroke-linejoin="round" />
</svg>